<svg width="58" height="73" viewBox="0 0 58 73" fill="none" xmlns="http://www.w3.org/2000/svg">
<g clip-path="url(#clip0_52_989)">
<path d="M29.1202 72.9105C44.8201 72.9105 57.5474 56.8094 57.5474 36.9478C57.5474 17.0862 44.8201 0.985107 29.1202 0.985107C13.4202 0.985107 0.692871 17.0862 0.692871 36.9478C0.692871 56.8094 13.4202 72.9105 29.1202 72.9105Z" fill="#F0F0F0"/>
<path d="M29.1201 0.985107C16.8973 0.985107 6.47751 10.7445 2.46094 24.4391H55.7793C51.7626 10.7445 41.3428 0.985107 29.1201 0.985107V0.985107Z" fill="#D80027"/>
<path d="M29.1201 72.9105C41.3428 72.9105 51.7626 63.1512 55.7792 49.4565H2.46094C6.47751 63.1512 16.8973 72.9105 29.1201 72.9105Z" fill="black"/>
<path d="M39.0078 33.0388H31.5919C31.5919 31.3118 30.4852 29.9116 29.12 29.9116C27.7548 29.9116 26.648 31.3118 26.648 33.0388H19.2322C19.2322 34.766 20.4213 36.166 21.7865 36.166H21.7041C21.7041 37.8932 22.8108 39.2933 24.1761 39.2933C24.1761 41.0204 25.2827 42.4205 26.648 42.4205H31.5919C32.9572 42.4205 34.0639 41.0204 34.0639 39.2933C35.4292 39.2933 36.5358 37.8932 36.5358 36.166H36.4536C37.8187 36.166 39.0078 34.766 39.0078 33.0388V33.0388Z" fill="#FF9811"/>
</g>
<defs>
<clipPath id="clip0_52_989">
<rect width="56.8546" height="71.9254" fill="white" transform="translate(0.692871 0.985107)"/>
</clipPath>
</defs>
</svg>
