<svg width="34" height="43" viewBox="0 0 34 43" fill="none" xmlns="http://www.w3.org/2000/svg">
<path d="M15.5195 20.472L0.141602 39.3049C0.142179 39.3088 0.143335 39.3121 0.143912 39.316C0.615512 41.3609 2.23426 42.8667 4.15547 42.8667C4.92346 42.8667 5.64451 42.6271 6.26286 42.2065L6.31197 42.1734L23.6218 30.6483L15.5195 20.472Z" fill="#EB3131"/>
<path d="M31.0774 17.2652L31.0627 17.2535L23.5896 12.2548L15.1703 20.8993L23.6189 30.6464L31.0526 25.6973C32.3559 24.8855 33.2406 23.3002 33.2406 21.4721C33.2406 19.6571 32.3677 18.0797 31.0774 17.2652Z" fill="#F6B60B"/>
<path d="M0.141032 3.56096C0.0485902 3.95429 0 4.36628 0 4.7941V38.0726C0 38.4996 0.0480121 38.913 0.14161 39.3049L16.0487 20.9539L0.141032 3.56096Z" fill="#5778C5"/>
<path d="M15.633 21.433L23.5925 12.2515L6.30238 0.684835C5.67392 0.250513 4.94045 -0.000144958 4.15556 -0.000144958C2.23435 -0.000144958 0.613434 1.50832 0.141691 3.55577C0.141113 3.55777 0.141113 3.5591 0.141113 3.56093L15.633 21.433Z" fill="#3BAD49"/>
</svg>
